<svg width="32" height="32" viewBox="0 0 32 32" fill="none" xmlns="http://www.w3.org/2000/svg">
<path d="M24.0026 13.3333H26.0026C26.8867 13.3333 27.7345 13.6845 28.3596 14.3096C28.9847 14.9348 29.3359 15.7826 29.3359 16.6667C29.3359 17.5507 28.9847 18.3986 28.3596 19.0237C27.7345 19.6488 26.8867 20 26.0026 20H24.0026M24.0026 13.3333C24.0026 12.6267 23.5226 12 22.7719 12H6.5666C6.40499 12 6.24496 12.0318 6.09565 12.0937C5.94634 12.1555 5.81067 12.2462 5.69639 12.3605C5.58211 12.4747 5.49146 12.6104 5.42962 12.7597C5.36777 12.909 5.33594 13.0691 5.33594 13.2307V22.6667C5.33594 24.0812 5.89784 25.4377 6.89803 26.4379C7.89823 27.4381 9.25478 28 10.6693 28H18.6693C20.0838 28 21.4403 27.4381 22.4405 26.4379C23.4407 25.4377 24.0026 24.0812 24.0026 22.6667V20M24.0026 13.3333V20M21.3359 4L18.6693 8M17.3359 4L14.6693 8M13.3359 4L10.6693 8" stroke="black" stroke-width="1.5" stroke-linecap="round" stroke-linejoin="round"/>
</svg>
