<svg width="32" height="32" viewBox="0 0 32 32" fill="none" xmlns="http://www.w3.org/2000/svg">
<g clip-path="url(#clip0_13679_134130)">
<path d="M9.8454 12.1892L0.664062 31.3332L19.9241 22.1092" stroke="black" stroke-width="1.5" stroke-miterlimit="10" stroke-linecap="round" stroke-linejoin="round"/>
<path d="M19.9302 22.1092L12.5769 19.5012L9.85156 12.1892L17.2062 14.7972L19.9302 22.1092Z" stroke="black" stroke-width="1.5" stroke-miterlimit="10" stroke-linecap="round" stroke-linejoin="round"/>
<path d="M16.6693 10.6667L15.3359 8.66675L16.6693 6.66675L15.3359 4.66675L16.6693 2.66675L15.3359 0.666748" stroke="black" stroke-width="1.5" stroke-miterlimit="10" stroke-linecap="round" stroke-linejoin="round"/>
<path d="M20.6641 16.0001L23.3307 14.6667L25.3307 16.0001L27.3307 14.6667L29.3307 16.0001L31.3307 14.6667" stroke="black" stroke-width="1.5" stroke-miterlimit="10" stroke-linecap="round" stroke-linejoin="round"/>
<path d="M24.2969 11.528L25.6342 9.53067L27.9929 9.99733L29.3302 8" stroke="black" stroke-width="1.5" stroke-miterlimit="10" stroke-linecap="round" stroke-linejoin="round"/>
<path d="M19.6328 7.57341L20.2901 5.26141L22.6768 4.97875L23.3341 2.66675" stroke="black" stroke-width="1.5" stroke-miterlimit="10" stroke-linecap="round" stroke-linejoin="round"/>
<path d="M10.6719 5.98657L11.3452 6.65991L10.6719 7.33324" stroke="black" stroke-width="1.5" stroke-linecap="round" stroke-linejoin="round"/>
<path d="M10.6733 5.98657L10 6.65991L10.6733 7.33324" stroke="black" stroke-width="1.5" stroke-linecap="round" stroke-linejoin="round"/>
<path d="M20.6719 10.6533L21.3452 11.3267L20.6719 12" stroke="black" stroke-width="1.5" stroke-linecap="round" stroke-linejoin="round"/>
<path d="M20.6733 10.6533L20 11.328L20.6733 12.0013" stroke="black" stroke-width="1.5" stroke-linecap="round" stroke-linejoin="round"/>
<path d="M26.6719 4.64136L27.3452 5.31469L26.6719 5.98802" stroke="black" stroke-width="1.5" stroke-linecap="round" stroke-linejoin="round"/>
<path d="M26.6733 4.64136L26 5.31469L26.6733 5.98802" stroke="black" stroke-width="1.5" stroke-linecap="round" stroke-linejoin="round"/>
<path d="M25.9922 18.6667L26.6655 19.3401L25.9922 20.0134" stroke="black" stroke-width="1.5" stroke-linecap="round" stroke-linejoin="round"/>
<path d="M25.9936 18.6667L25.3203 19.3401L25.9936 20.0134" stroke="black" stroke-width="1.5" stroke-linecap="round" stroke-linejoin="round"/>
</g>
<defs>
<clipPath id="clip0_13679_134130">
<rect width="32" height="32" fill="white"/>
</clipPath>
</defs>
</svg>
