<svg width="34" height="34" viewBox="0 0 34 34" fill="none" xmlns="http://www.w3.org/2000/svg">
<path d="M2.30469 19.1854C2.30469 18.9954 6.64791 8.01367 16.9927 8.01367C27.3374 8.01367 31.6807 18.9954 31.6807 19.1854C31.6807 19.3754 27.3374 30.3572 16.9927 30.3572C6.64791 30.3572 2.30469 19.3754 2.30469 19.1854Z" stroke="black" stroke-width="1.5" stroke-linecap="round" stroke-linejoin="round"/>
<path d="M5.58018 13.7412L1.21094 9.5061" stroke="black" stroke-width="1.5" stroke-linecap="round" stroke-linejoin="round"/>
<path d="M12.4428 8.77269L10.8203 3.64282" stroke="black" stroke-width="1.5" stroke-linecap="round" stroke-linejoin="round"/>
<path d="M28.4844 13.8172L32.7859 9.5061" stroke="black" stroke-width="1.5" stroke-linecap="round" stroke-linejoin="round"/>
<path d="M21.5625 8.77272L23.1753 3.64282" stroke="black" stroke-width="1.5" stroke-linecap="round" stroke-linejoin="round"/>
<path d="M13.0877 20.8046C12.8751 20.2913 12.7656 19.7412 12.7656 19.1856C12.7656 18.6301 12.8751 18.08 13.0877 17.5667C13.3003 17.0534 13.6119 16.587 14.0047 16.1942C14.3976 15.8013 14.864 15.4897 15.3772 15.2771C15.8905 15.0645 16.4406 14.9551 16.9962 14.9551C17.5518 14.9551 18.1019 15.0645 18.6152 15.2771C19.1284 15.4897 19.5948 15.8013 19.9877 16.1942C20.3805 16.587 20.6921 17.0534 20.9047 17.5667C21.1173 18.08 21.2268 18.6301 21.2268 19.1856C21.2268 19.7412 21.1173 20.2913 20.9047 20.8046C20.6921 21.3179 20.3805 21.7843 19.9877 22.1771C19.5948 22.57 19.1284 22.8816 18.6152 23.0942C18.1019 23.3068 17.5518 23.4162 16.9962 23.4162C16.4406 23.4162 15.8905 23.3068 15.3772 23.0942C14.864 22.8816 14.3976 22.57 14.0047 22.1771C13.6119 21.7843 13.3003 21.3179 13.0877 20.8046Z" stroke="black" stroke-width="1.5"/>
</svg>
