<svg width="32" height="32" viewBox="0 0 32 32" fill="none" xmlns="http://www.w3.org/2000/svg">
<path d="M22.5677 28.1151C23.4916 28.6012 23.146 30 22.102 30H2.97656C2.42428 30 1.97656 29.5523 1.97656 29V18.9362C1.97656 18.1838 2.77632 17.7009 3.44223 18.0513L22.5677 28.1151Z" stroke="black" stroke-width="1.5" stroke-miterlimit="10"/>
<path d="M2.5 18L9.04323 3.12005C9.21265 2.78134 9.47358 2.49687 9.79645 2.29891C10.1193 2.10095 10.4912 1.99742 10.8699 2.00005C11.2536 1.99782 11.6298 2.106 11.9537 2.31168C12.2775 2.51736 12.5354 2.81185 12.6966 3.16005L19.5 17" stroke="black" stroke-width="1.5" stroke-miterlimit="10"/>
<path d="M7.05469 7.09326L9.61469 10.9066L10.8814 9.63993L13.428 10.9066L15.2414 8.49326" stroke="black" stroke-width="1.5" stroke-miterlimit="10"/>
<path d="M28.1733 20.7333H18L23.08 8L28.1733 20.7333Z" stroke="black" stroke-width="1.5" stroke-miterlimit="10"/>
<path d="M23 21.0933V28.7333" stroke="black" stroke-width="1.5" stroke-miterlimit="10"/>
</svg>
