<svg width="32" height="32" viewBox="0 0 32 32" fill="none" xmlns="http://www.w3.org/2000/svg">
<path d="M30.5356 23.7538L26.302 21.637C23.7895 20.3917 22.2037 17.8261 22.2134 15.0219V10.6743C22.2134 10.1842 21.816 9.78681 21.3259 9.78681C17.2431 9.78191 13.9345 6.47337 13.9296 2.39059C13.9291 1.70735 13.1891 1.28094 12.5977 1.62304C12.5661 1.6413 12.5357 1.6615 12.5066 1.6835L1.11642 10.3238L1.09423 10.34C0.135918 11.1119 0.0580681 12.5442 0.927068 13.4154L17.749 30.2359C17.9153 30.4024 18.1409 30.496 18.3762 30.4962H29.6096C30.7534 30.4962 31.6806 29.569 31.6806 28.4253V25.6058C31.6825 24.8209 31.2387 24.1029 30.5356 23.7538ZM29.9055 28.4253C29.9055 28.5887 29.773 28.7212 29.6096 28.7212H18.7431L2.18296 12.1536C2.12479 12.0959 2.09319 12.0166 2.09568 11.9347C2.09986 11.8541 2.13672 11.7788 2.19774 11.7261L4.32194 10.1152L10.2389 16.0322C10.7257 16.5116 11.5489 16.2843 11.7207 15.623C11.7992 15.3211 11.7134 15.0002 11.4948 14.7778L5.75089 9.03387L12.3025 4.06212C13.0541 8.08061 16.3697 11.1195 20.4383 11.519V15.0219C20.4263 18.4988 22.3924 21.6801 25.5077 23.2243L29.7413 25.3425C29.8413 25.3923 29.9049 25.4941 29.9055 25.6058V28.4253ZM6.94759 25.7626H1.20813C0.524893 25.7618 0.0987556 25.0217 0.441068 24.4304C0.599568 24.1566 0.891793 23.9879 1.20813 23.9876H6.94759C7.63083 23.9867 8.05873 24.7259 7.71782 25.318C7.55922 25.5934 7.26544 25.763 6.94759 25.7626ZM12.5687 29.6087C12.5687 30.0988 12.1713 30.4962 11.6812 30.4962H3.57492C2.89168 30.4954 2.46554 29.7553 2.80787 29.164C2.96636 28.8902 3.25858 28.7215 3.57492 28.7212H11.6812C12.1714 28.7212 12.5687 29.1185 12.5687 29.6087Z" fill="black"/>
</svg>
