<svg width="32" height="32" viewBox="0 0 32 32" fill="none" xmlns="http://www.w3.org/2000/svg">
<path d="M21.5625 10.2949C21.5625 11.0906 21.8785 11.8536 22.4412 12.4162C23.0037 12.9789 23.7668 13.2949 24.5625 13.2949C25.3581 13.2949 26.1212 12.9789 26.6838 12.4162C27.2464 11.8536 27.5625 11.0906 27.5625 10.2949C27.5625 9.49927 27.2464 8.73622 26.6838 8.1736C26.1212 7.61099 25.3581 7.29492 24.5625 7.29492C23.7668 7.29492 23.0037 7.61099 22.4412 8.1736C21.8785 8.73622 21.5625 9.49927 21.5625 10.2949Z" stroke="black" stroke-width="1.5" stroke-linecap="round" stroke-linejoin="round"/>
<path d="M6.44492 4.57072C6.64767 4.64706 6.81996 4.78751 6.93559 4.97072L10.3276 10.2854L18.1289 13.2187C18.4542 13.3421 18.7422 13.5473 18.9649 13.8147L24.1116 20.0213C24.4502 20.4299 24.6126 20.956 24.5633 21.4843C24.5138 22.0125 24.2566 22.4995 23.8482 22.838C23.4398 23.1767 22.9136 23.3391 22.3854 23.2897C21.8572 23.2404 21.3702 22.9832 21.0316 22.5747L16.2249 16.7733L8.29692 13.796C7.8918 13.6427 7.54743 13.362 7.31559 12.9961L2.13692 4.87072C2.02583 4.69339 1.97318 4.48568 1.98636 4.27684C1.99954 4.068 2.07791 3.86856 2.21042 3.7066C2.34292 3.54466 2.5229 3.42835 2.72499 3.37407C2.92707 3.31979 3.1411 3.33028 3.33692 3.40406L6.44492 4.57072Z" stroke="black" stroke-width="1.5" stroke-linecap="round" stroke-linejoin="round"/>
<path d="M12.2192 10.9961L10.8125 14.7415" stroke="black" stroke-width="1.5" stroke-linecap="round" stroke-linejoin="round"/>
<path d="M9.56148 9.09448L5.88281 10.7638" stroke="black" stroke-width="1.5" stroke-linecap="round" stroke-linejoin="round"/>
<path d="M1 28.8959C1.97347 28.894 2.93295 28.6639 3.80132 28.2239C4.66969 27.7839 5.42276 27.1464 6 26.3625C6.57568 27.1481 7.32837 27.7871 8.19708 28.2275C9.06577 28.6679 10.026 28.8973 11 28.8973C11.974 28.8973 12.9342 28.6679 13.8029 28.2275C14.6716 27.7871 15.4243 27.1481 16 26.3625C16.5757 27.1481 17.3284 27.7871 18.1971 28.2275C19.0657 28.6679 20.026 28.8973 21 28.8973C21.974 28.8973 22.9343 28.6679 23.8029 28.2275C24.6716 27.7871 25.4243 27.1481 26 26.3625C26.5772 27.1464 27.3303 27.7839 28.1987 28.2239C29.0671 28.6639 30.0265 28.894 31 28.8959" stroke="black" stroke-width="1.4167" stroke-linecap="round" stroke-linejoin="round"/>
</svg>
