<svg width="32" height="32" viewBox="0 0 32 32" fill="none" xmlns="http://www.w3.org/2000/svg">
<g clip-path="url(#clip0_13679_134090)">
<path d="M1.15625 30.4936C1.92051 30.2664 2.62455 29.8716 3.21719 29.3384C3.80983 28.8049 4.27623 28.1461 4.58245 27.4099C5.05342 28.5087 5.85866 29.4312 6.88373 30.0463C7.90881 30.6613 9.10163 30.9377 10.2928 30.8362C11.4839 30.9377 12.6767 30.6613 13.7018 30.0463C14.7269 29.4312 15.5321 28.5087 16.0031 27.4099C16.4741 28.5087 17.2793 29.4312 18.3044 30.0463C19.3295 30.6613 20.5223 30.9377 21.7134 30.8362C22.9046 30.9377 24.0975 30.6613 25.1224 30.0463C26.1475 29.4312 26.9528 28.5087 27.4236 27.4099C27.7299 28.1461 28.1964 28.8049 28.7889 29.3384C29.3816 29.8716 30.0856 30.2664 30.8499 30.4936" stroke="black" stroke-width="1.5" stroke-linecap="round" stroke-linejoin="round"/>
<path d="M1.15625 21.3574C2.68476 20.9029 3.96999 19.7462 4.58245 18.2738C5.53758 20.502 8.00865 21.7 10.2928 21.7C14.861 21.7 18.2872 18.2738 18.2872 14.8476C18.2872 10.2793 16.0031 5.71107 10.2928 7.99521C10.6734 5.71107 13.0337 1.14282 19.4293 1.14282C25.8248 1.14282 29.7078 5.71107 30.8499 7.99521" stroke="black" stroke-width="1.5" stroke-linecap="round" stroke-linejoin="round"/>
</g>
<defs>
<clipPath id="clip0_13679_134090">
<rect width="32" height="32" fill="white"/>
</clipPath>
</defs>
</svg>
