<svg width="22" height="16" viewBox="0 0 22 16" fill="none" xmlns="http://www.w3.org/2000/svg">
<path d="M-3.49593e-07 8.00223C-3.76333e-07 7.3905 0.495911 6.89458 1.10765 6.89458L14.7615 6.89458C16.4427 6.89458 17.3738 4.94625 16.3176 3.63819L14.782 1.73623C14.4328 1.30365 14.7619 1.08145 15.1111 0.648923C15.4603 0.216396 15.6973 -0.262509 16.0466 0.169942L21.7381 7.21909C22.0873 7.65165 22.0873 8.35281 21.7381 8.78537L16.0466 15.8345C15.6973 16.267 15.4603 15.7639 15.1111 15.3314C14.7619 14.8989 14.4328 14.7008 14.782 14.2682L16.3176 12.3663C17.3738 11.0582 16.4427 9.10988 14.7615 9.10988L1.10765 9.10988C0.495911 9.10988 -3.22854e-07 8.61397 -3.49593e-07 8.00223Z" fill="white"/>
</svg>
